<?xml version="1.0" encoding="utf-8"?>
<!-- Generator: Adobe Illustrator 15.0.0, SVG Export Plug-In . SVG Version: 6.00 Build 0)  -->
<!DOCTYPE svg PUBLIC "-//W3C//DTD SVG 1.1//EN" "http://www.w3.org/Graphics/SVG/1.1/DTD/svg11.dtd">
<svg version="1.1" id="Layer_1" xmlns="http://www.w3.org/2000/svg" xmlns:xlink="http://www.w3.org/1999/xlink" x="0px" y="0px"
	 width="496.747px" height="95.094px" viewBox="0 0 496.747 95.094" enable-background="new 0 0 496.747 95.094"
	 xml:space="preserve">
<g>
	<path fill="#5C6670" d="M114.351,75.021h6.525l-3.228-7.732L114.351,75.021z M116.693,65.385h1.888l7.229,16.821h-1.841
		l-2.432-5.66h-7.821l-2.457,5.66h-1.75L116.693,65.385z"/>
	<path fill="#5C6670" d="M127.812,78.522c0.046,2.364,1.659,2.548,2.228,2.548c1.5,0,2.319-0.887,2.319-2.227
		c0-1.707-1.549-2.096-2.479-2.482c-1.273-0.428-3.296-1.111-3.296-3.455c0-1.748,1.251-3.456,3.547-3.456
		c1.863,0,3.41,1.435,3.387,3.39h-1.591c-0.113-1.523-1.159-1.955-1.864-1.955c-1.273,0-1.888,1.023-1.888,1.864
		c0,1.319,1.319,1.773,2.229,2.068c1.457,0.479,3.548,1.272,3.548,3.843c0.021,2.135-1.273,3.842-3.911,3.842
		c-1.728,0-3.889-1.182-3.82-3.979H127.812z"/>
	<path fill="#5C6670" d="M135.974,69.771h1.589v12.436h-1.589V69.771z M135.974,65.385h1.589v2.864h-1.589V65.385z"/>
	<path fill="#5C6670" d="M146.683,81.07c2.684,0,4.979-2.16,4.979-5.069c0-2.728-2.115-5.118-4.979-5.118
		c-2.729,0-5.094,1.979-5.094,5.139C141.588,78.797,143.635,81.07,146.683,81.07 M153.161,82.207h-1.59v-2.182h-0.045
		c-1.365,2.044-3.548,2.479-4.843,2.479c-3.911,0-6.684-2.982-6.684-6.549c0-3.319,2.614-6.505,6.684-6.505
		c1.341,0,3.523,0.434,4.843,2.504h0.045v-2.183h1.59V82.207z"/>
	<polygon fill="#5C6670" points="156.543,69.793 158.544,65.385 160.225,65.385 158.225,69.793 	"/>
	<path fill="#5C6670" d="M161.184,78.522c0.047,2.364,1.66,2.548,2.229,2.548c1.5,0,2.318-0.887,2.318-2.227
		c0-1.707-1.547-2.096-2.478-2.482c-1.273-0.428-3.296-1.111-3.296-3.455c0-1.748,1.25-3.456,3.547-3.456
		c1.863,0,3.409,1.435,3.387,3.39h-1.591c-0.115-1.523-1.16-1.955-1.865-1.955c-1.274,0-1.888,1.023-1.888,1.864
		c0,1.319,1.319,1.773,2.229,2.068c1.455,0.479,3.548,1.272,3.548,3.843c0.021,2.135-1.273,3.842-3.911,3.842
		c-1.728,0-3.888-1.182-3.82-3.979H161.184z"/>
	<path fill="#5C6670" d="M181.511,81.07c3.296,0,4.933-2.956,4.933-5.069c0-2.728-2.137-5.116-4.933-5.116
		c-2.82,0-4.911,2.389-4.911,5.116C176.6,78.706,178.69,81.07,181.511,81.07 M187.945,80.25c0,1.342,0,3.022-1.137,4.547
		c-1.569,2.186-4.434,2.297-4.933,2.297c-1.773,0-5.231-0.682-6.367-4.571h1.683c0.408,1.026,1.636,3.141,4.662,3.141
		c2.089,0,4.5-1.208,4.5-4.639v-1.09h-0.046c-0.932,1.772-2.976,2.569-4.796,2.569c-3.274,0-6.503-2.55-6.503-6.457
		c0-3.956,3.229-6.597,6.503-6.597c1.137,0,3.365,0.344,4.796,2.55h0.046v-2.229h1.592V80.25z"/>
	<rect x="190.947" y="65.385" fill="#5C6670" width="1.589" height="16.822"/>
	<path fill="#5C6670" d="M201.473,81.071c2.411,0,4.911-1.911,4.911-5.164c0-3.271-2.773-5.024-4.911-5.024
		c-2.273,0-4.909,1.866-4.909,5.163C196.564,78.932,198.904,81.071,201.473,81.071 M201.451,69.452c3.685,0,6.525,3.112,6.525,6.522
		c0,3.389-2.794,6.529-6.525,6.529c-3.637,0-6.478-3.069-6.478-6.438C194.973,72.138,198.178,69.452,201.451,69.452"/>
	<path fill="#5C6670" d="M216.936,70.883c-2.865,0-4.977,2.391-4.977,5.117c0,2.91,2.295,5.071,4.977,5.071
		c3.047,0,5.094-2.275,5.094-5.05C222.03,72.86,219.665,70.883,216.936,70.883 M210.458,65.385h1.591v6.568h0.044
		c1.41-2.022,3.502-2.501,4.843-2.501c4.068,0,6.683,3.184,6.683,6.503c0,3.566-2.772,6.549-6.683,6.549
		c-1.295,0-3.456-0.455-4.843-2.478h-0.044v2.18h-1.591V65.385z"/>
	<path fill="#5C6670" d="M232.055,81.07c2.683,0,4.98-2.16,4.98-5.069c0-2.728-2.115-5.118-4.98-5.118
		c-2.728,0-5.091,1.979-5.091,5.139C226.964,78.797,229.008,81.07,232.055,81.07 M238.534,82.207h-1.59v-2.182h-0.046
		c-1.363,2.044-3.548,2.479-4.843,2.479c-3.911,0-6.683-2.982-6.683-6.549c0-3.319,2.615-6.505,6.683-6.505
		c1.341,0,3.525,0.434,4.843,2.504h0.046v-2.183h1.59V82.207z"/>
	<rect x="241.426" y="65.385" fill="#5C6670" width="1.59" height="16.822"/>
	<path fill="#5C6670" d="M258.728,70.883c-2.863,0-4.978,2.391-4.978,5.118c0,2.909,2.294,5.069,4.978,5.069
		c3.045,0,5.092-2.273,5.092-5.049C263.819,72.861,261.455,70.883,258.728,70.883 M252.247,69.771h1.593v2.183h0.042
		c1.435-2.049,3.503-2.504,4.846-2.504c4.07,0,6.685,3.186,6.685,6.505c0,3.566-2.774,6.549-6.685,6.549
		c-1.296,0-3.456-0.455-4.846-2.479h-0.042v6.547h-1.593V69.771z"/>
	<path fill="#5C6670" d="M267.778,69.771h1.59v1.796h0.047c0.749-1.749,2.159-2.024,3.499-2.117v1.684
		c-1.111,0.092-2.066,0.499-2.683,1.227c-0.544,0.685-0.863,1.571-0.863,2.569v7.277h-1.59V69.771z"/>
	<path fill="#5C6670" d="M274.843,69.771h1.589v12.436h-1.589V69.771z M274.843,65.385h1.589v2.864h-1.589V65.385z"/>
	<polygon fill="#5C6670" points="278.071,69.771 279.776,69.771 284.167,80.229 288.621,69.771 290.325,69.771 285.073,82.207 
		283.323,82.207 	"/>
	<path fill="#5C6670" d="M297.314,81.07c2.683,0,4.98-2.16,4.98-5.069c0-2.728-2.115-5.118-4.98-5.118
		c-2.729,0-5.093,1.979-5.093,5.139C292.222,78.797,294.268,81.07,297.314,81.07 M303.793,82.207h-1.59v-2.182h-0.045
		c-1.365,2.044-3.549,2.479-4.844,2.479c-3.91,0-6.683-2.982-6.683-6.549c0-3.319,2.614-6.505,6.683-6.505
		c1.34,0,3.524,0.434,4.844,2.504h0.045v-2.183h1.59V82.207z"/>
	<polygon fill="#5C6670" points="308.306,71.204 305.693,71.204 305.693,69.773 308.306,69.773 308.306,65.385 309.896,65.385 
		309.896,69.773 312.876,69.773 312.876,71.204 309.896,71.204 309.896,82.207 308.306,82.207 	"/>
	<path fill="#5C6670" d="M325.012,75.134c-0.499-2.931-2.887-4.249-4.865-4.249c-1.955,0-4.388,1.318-4.842,4.249H325.012z
		 M315.305,76.566c0.112,2.436,2.386,4.504,4.82,4.504c2.273-0.045,3.887-1.386,4.455-2.935h1.683
		c-0.862,2.478-3.25,4.368-6.116,4.368c-3.478,0-6.479-2.819-6.479-6.503c0-3.527,2.843-6.479,6.458-6.551
		c2.727,0.025,4.659,1.637,5.548,3.186c0.84,1.341,1.021,2.729,0.955,3.931H315.305z"/>
	<path fill="#5C6670" d="M341.904,70.883c-2.864,0-4.977,2.391-4.977,5.117c0,2.91,2.295,5.071,4.977,5.071
		c3.047,0,5.093-2.275,5.093-5.05C346.997,72.86,344.633,70.883,341.904,70.883 M335.426,65.385h1.59v6.568h0.047
		c1.409-2.022,3.502-2.501,4.842-2.501c4.07,0,6.684,3.184,6.684,6.503c0,3.566-2.773,6.549-6.684,6.549
		c-1.294,0-3.455-0.455-4.842-2.478h-0.047v2.18h-1.59V65.385z"/>
	<path fill="#5C6670" d="M357.025,81.07c2.683,0,4.981-2.16,4.981-5.069c0-2.728-2.115-5.118-4.981-5.118
		c-2.729,0-5.094,1.979-5.094,5.139C351.932,78.797,353.979,81.07,357.025,81.07 M363.505,82.207h-1.59v-2.182h-0.046
		c-1.365,2.044-3.549,2.479-4.844,2.479c-3.91,0-6.682-2.982-6.682-6.549c0-3.319,2.613-6.505,6.682-6.505
		c1.342,0,3.525,0.434,4.844,2.504h0.046v-2.183h1.59V82.207z"/>
	<path fill="#5C6670" d="M366.395,69.771h1.589v1.591h0.046c0.479-0.75,1.706-1.912,3.821-1.912c1.523,0,2.796,0.389,3.934,1.525
		c0.93,0.907,1.542,2.345,1.542,4.389v6.843h-1.588v-6.843c0-1.617-0.5-2.753-1.182-3.41c-0.864-0.841-2.002-1.071-2.706-1.071
		c-0.705,0-1.844,0.23-2.706,1.071c-0.681,0.657-1.181,1.793-1.161,3.41v6.843h-1.589V69.771z"/>
	<polygon fill="#5C6670" points="380.101,65.385 381.69,65.385 381.69,77.365 381.734,77.365 387.533,69.771 389.58,69.771 
		384.669,76.046 389.831,82.206 387.784,82.206 383.691,77.294 381.69,79.842 381.69,82.206 380.101,82.206 	"/>
</g>
<g>
	<path fill="#5C6670" d="M115.414,31.544h2.332c3.188,0,4.335,1.471,4.335,3.271c0,3.271-3.519,3.271-4.827,3.271h-1.84V31.544z
		 M115.414,43.321h2.944c4.907,0,5.522,2.822,5.522,4.048c0,3.967-4.541,3.967-5.646,3.967h-2.821V43.321z M109.812,56.572h8.097
		c1.963,0,5.521-0.205,7.811-1.801c1.842-1.308,3.763-3.558,3.763-7.196c0-5.112-3.189-6.791-5.194-7.524
		c0.942-0.532,3.396-1.965,3.396-5.768c0-2.084-1.063-4.293-2.576-5.642c-2.618-2.332-5.973-2.332-9.325-2.332h-5.971V56.572z"/>
	<path fill="#5C6670" d="M144.442,34.202h0.083l3.435,9.283h-6.952L144.442,34.202z M129.72,56.572h6.175l3.23-7.813h10.839
		l3.23,7.813h6.175L146.692,26.31h-4.376L129.72,56.572z"/>
	<polygon fill="#5C6670" points="162.151,56.572 167.753,56.572 167.753,34.57 167.835,34.57 180.471,56.572 186.729,56.572 
		186.729,26.31 181.126,26.31 181.126,48.311 181.044,48.311 168.53,26.31 162.151,26.31 	"/>
	<polygon fill="#5C6670" points="192.372,56.572 197.975,56.572 197.975,43.28 198.057,43.28 207.503,56.572 214.088,56.572 
		202.677,41.194 214.088,26.31 207.503,26.31 198.057,39.396 197.975,39.396 197.975,26.31 192.372,26.31 	"/>
	<path fill="#5C6670" d="M218.457,41.604c0-7.524,6.135-13.089,12.964-13.089c7.157,0,13.005,5.891,13.005,12.966
		c0,7.199-6.012,12.882-13.005,12.882C224.387,54.363,218.457,48.516,218.457,41.604 M215.431,41.604
		c0,8.506,7.402,15.499,15.99,15.499c8.466,0,16.031-6.747,16.031-15.663c0-8.914-7.524-15.663-16.031-15.663
		C223.365,25.777,215.431,32.075,215.431,41.604"/>
	<polygon fill="#5C6670" points="252.479,56.572 255.505,56.572 255.505,42.75 267.324,42.75 267.324,40.009 255.505,40.009 
		255.505,29.048 267.774,29.048 267.774,26.31 252.479,26.31 	"/>
	<path fill="#5C6670" d="M271.573,47.901c0.328,6.668,5.97,9.283,9.856,9.283c4.743,0,9.814-3.107,9.814-9.65
		c0-6.585-5.439-8.507-7.934-9.325c-3.066-1.021-5.03-1.596-5.03-4.212c0-1.798,1.35-3.065,3.107-3.065
		c1.513,0,3.148,0.694,3.396,3.394h5.725c-0.286-6.176-5.44-8.63-8.956-8.63c-5.114,0-8.876,3.803-8.876,8.63
		c0,6.378,4.866,7.812,7.198,8.71c3.763,1.43,5.767,2.003,5.767,5.113c0,2.29-1.964,3.803-4.171,3.803
		c-1.718,0-3.723-1.023-4.008-4.05H271.573z"/>
	<rect x="296.101" y="26.31" fill="#5C6670" width="5.603" height="30.263"/>
	<polygon fill="#5C6670" points="307.461,56.572 313.064,56.572 313.064,34.57 313.146,34.57 325.783,56.572 332.04,56.572 
		332.04,26.31 326.437,26.31 326.437,48.311 326.354,48.311 313.841,26.31 307.461,26.31 	"/>
	<path fill="#5C6670" d="M348.11,46.39h12.679c-1.759,3.518-5.234,5.562-8.955,5.562c-7.199,0-10.675-5.848-10.675-10.471
		c0-4.744,3.559-10.551,10.388-10.551c4.008,0,6.788,2.249,8.097,4.254h6.706c-1.552-4.337-7.073-9.488-14.68-9.488
		c-8.549,0-16.112,6.83-16.112,15.745c0,9.079,7.605,15.744,16.276,15.744c8.464,0,16.03-6.747,16.03-15.376v-0.654H348.11V46.39z"
		/>
	<path fill="#5C6670" d="M381.767,34.202h0.08l3.436,9.283h-6.951L381.767,34.202z M367.044,56.572h6.176l3.229-7.813h10.837
		l3.232,7.813h6.174L384.015,26.31h-4.376L367.044,56.572z"/>
	<path fill="#5C6670" d="M405.566,31.544h2.003c2.292,0,6.137,0.163,6.137,4.13c0,3.968-3.927,4.131-6.34,4.131h-1.8V31.544z
		 M399.964,56.572h5.603V45.039h2.003c3.233,0,6.012,0,8.876-2.412c1.963-1.801,2.861-4.131,2.861-6.953
		c0-2.82-0.898-5.152-2.861-6.951c-2.864-2.413-5.643-2.413-8.876-2.413h-7.605V56.572z"/>
	<path fill="#5C6670" d="M427.274,41.48c0-5.806,4.54-10.549,10.225-10.549c5.683,0,10.224,4.743,10.224,10.549
		c0,5.604-4.458,10.471-10.224,10.471C431.731,51.951,427.274,47.084,427.274,41.48 M421.672,41.521
		c0,8.67,7.115,15.663,15.827,15.663c8.709,0,15.826-6.993,15.826-15.663c0-8.955-7.238-15.826-15.826-15.826
		C428.909,25.695,421.672,32.566,421.672,41.521"/>
	<path fill="#5C6670" d="M462.073,31.544h3.6c4.376,0,5.399,2.904,5.399,4.58c0,1.595-0.779,4.66-5.399,4.66h-3.6V31.544z
		 M456.471,56.572h5.603V45h0.083l8.015,11.572h6.789l-8.219-11.165c1.512-0.368,3.229-0.778,5.029-2.495
		c2.168-2.086,2.902-5.234,2.902-7.238c0-3.475-1.838-5.93-3.559-7.319c-1.715-1.392-3.883-2.045-7.36-2.045h-9.283V56.572z"/>
	<polygon fill="#5C6670" points="480.47,26.311 480.47,56.572 496.747,56.572 496.747,51.337 486.073,51.337 486.073,44.181 
		496.297,44.181 496.297,38.945 486.073,38.945 486.073,31.543 496.747,31.543 496.747,26.311 	"/>
</g>
<g>
	<path fill="#ED1D24" d="M47.547,0c13.455,0,25.608,5.587,34.259,14.57H74l-51.237-0.001l61.645,3.053l-65.122,0.404l66.586,3.466
		L15.69,22.349l31.957,1.497h-0.101c-13.089,0-23.699,10.611-23.699,23.7c0,12.331,9.415,22.46,21.45,23.595L5.239,69.265
		C1.891,62.755,0,55.369,0,47.546C0,21.285,21.287,0,47.547,0"/>
	<path fill="#ED1D24" d="M89.854,25.824c3.349,6.511,5.24,13.895,5.24,21.722c0,26.261-21.287,47.548-47.548,47.548
		c-13.494,0-25.675-5.621-34.329-14.649l7.883,0.073h51.238l-61.644-3.051l65.119-0.403L9.229,73.598l70.182-0.857l-31.864-1.495
		c13.09,0,23.701-10.609,23.701-23.699c0-12.365-9.469-22.519-21.551-23.604L89.854,25.824z"/>
</g>
</svg>
