<?xml version="1.0" encoding="UTF-8" standalone="no"?>
<svg width="92px" height="39px" viewBox="0 0 92 39" version="1.1" xmlns="http://www.w3.org/2000/svg" xmlns:xlink="http://www.w3.org/1999/xlink">
    <!-- Generator: Sketch 39.1 (31720) - http://www.bohemiancoding.com/sketch -->
    <title>POSB logo</title>
    <desc>Created with Sketch.</desc>
    <defs></defs>
    <g id="2-Global-Elements" stroke="none" stroke-width="1" fill="none" fill-rule="evenodd">
        <g id="Artboard" transform="translate(-107.000000, -106.000000)">
            <g id="POSB-Nav" transform="translate(67.000000, 91.000000)">
                <g id="POSB-logo" transform="translate(86.000000, 34.500000) scale(1, -1) translate(-86.000000, -34.500000) translate(40.000000, 15.000000)">
                    <g id="g1736" transform="translate(32.000000, 10.000000)" fill="#FF9900">
                        <path d="M50.2491312,7.52246619 L50.2491312,3.65304639 L54.4236486,3.65304639 C55.562534,3.65304639 56.839593,4.08841064 56.839593,5.58819253 C56.839593,7.20924822 55.0977683,7.52246619 53.9136624,7.52246619 L50.2491312,7.52246619 L50.2491312,7.52246619 Z M50.2491312,14.4830595 L50.2491312,10.717464 L53.7972617,10.717464 C54.9126994,10.717464 56.074195,11.2208812 56.074195,12.5993893 C56.074195,14.0258834 54.7720136,14.4830595 53.634803,14.4830595 L50.2491312,14.4830595 L50.2491312,14.4830595 Z M47.2419713,0.434491784 L47.2419713,17.5637633 L53.2186074,17.5637633 C56.1001549,17.5637633 59.2337646,16.9347099 59.2337646,13.2101207 C59.2337646,11.2976589 58.2498011,9.99156609 56.5548717,9.43318307 L56.5548717,9.38606951 C58.7137294,9.09640832 60,7.42649411 60,5.20081431 C60,1.61843827 56.7499895,0.434491784 53.824059,0.434491784 L47.2419713,0.434491784 L47.2419713,0.434491784 Z M18.0203492,8.99956376 C18.0203492,5.80543842 19.9849265,3.48378653 22.9878993,3.48378653 C25.9908722,3.48378653 27.9562869,5.80543842 27.9562869,8.99956376 C27.9562869,12.1936891 25.9908722,14.5162135 22.9878993,14.5162135 C19.9849265,14.5162135 18.0203492,12.1936891 18.0203492,8.99956376 L18.0203492,8.99956376 Z M14.3625173,8.99956376 C14.3625173,14.4909117 17.997739,18 22.9878993,18 C27.9780597,18 31.6141188,14.4909117 31.6141188,8.99956376 C31.6141188,3.50647084 27.9780597,0 22.9878993,0 C17.997739,0 14.3625173,3.50647084 14.3625173,8.99956376 L14.3625173,8.99956376 Z M3.56152912,14.4813145 L3.56152912,9.37123746 L6.77553071,9.37123746 C8.18825106,9.37123746 9.59762174,10.1817653 9.59762174,11.9136251 C9.59762174,14.3225244 7.70003768,14.4813145 6.15835532,14.4813145 L3.56152912,14.4813145 L3.56152912,14.4813145 Z M0,0.435364258 L0,17.5637633 L6.3065779,17.5637633 C10.0799732,17.5637633 13.2110706,16.3292133 13.2110706,11.9136251 C13.2110706,7.55387524 10.3119374,6.213756 6.48662228,6.213756 L3.56152912,6.213756 L3.56152912,0.435364258 L0,0.435364258 L0,0.435364258 Z M44.2951053,17.5637633 L44.2951053,14.46561 L37.7699619,14.46561 C36.6880208,14.46561 36.1219277,13.9587029 36.1219277,13.1621347 C36.1219277,12.4152974 36.3966001,12.0802676 37.1184525,11.6955068 C39.2915463,10.536862 44.9407528,10.7811546 44.9407528,5.31685328 C44.9407528,2.51970336 43.1872043,0.439726625 39.7990202,0.439726625 L32.8551689,0.435364258 L32.8551689,3.65304639 L39.2739606,3.65304639 C39.7990202,3.65304639 41.3197672,3.63995928 41.3197672,5.27759197 C41.3197672,6.63254326 40.427082,6.91696961 39.4272076,7.26857641 C36.9811163,8.13145267 32.7655655,8.31816199 32.7655655,12.7023411 C32.7655655,15.4209684 34.6531005,17.5637633 37.6610979,17.5637633 L44.2951053,17.5637633 L44.2951053,17.5637633 Z" id="path1738"></path>
                    </g>
                    <g id="g1740" fill="#012081">
                        <path d="M17.6602899,9.88615385 C17.6602899,11.1581723 18.6967281,12.1907262 19.9759954,12.1907262 C21.2541588,12.1907262 22.2928046,11.1581723 22.2928046,9.88615385 C22.2928046,8.61303692 21.2541588,7.58048308 19.9759954,7.58048308 C18.6967281,7.58048308 17.6602899,8.61303692 17.6602899,9.88615385 L17.6602899,9.88615385 Z M7.22857739,29.1465785 C7.01223884,29.81664 6.89744696,30.5284431 6.89744696,31.2699046 C6.89744696,35.1101262 10.0266296,38.2231662 13.8831954,38.2231662 C17.7441762,38.2231662 20.8722551,35.1101262 20.8722551,31.2699046 C20.8722551,30.5284431 20.7552557,29.81664 20.5389171,29.1465785 C24.1195409,28.8456 26.931942,25.8588831 26.931942,22.2185815 C26.931942,18.3772615 23.8038632,15.2642215 19.9450899,15.2642215 C18.721011,15.2642215 17.5697809,15.5783815 16.5675594,16.1287108 L16.5675594,0.857898462 L13.8820916,0.857898462 C12.3975235,0.866686154 11.2087652,2.04863077 11.1988313,3.50848615 L11.1988313,16.1287108 C10.1999212,15.5783815 9.04758725,15.2642215 7.82461217,15.2642215 C3.96583884,15.2642215 0.836656232,18.3772615 0.836656232,22.2185815 C0.836656232,25.8588831 3.64905739,28.8456 7.22857739,29.1465785 L7.22857739,29.1465785 Z M17.3909704,22.2185815 C17.3909704,20.8136492 18.535578,19.6756431 19.9450899,19.6756431 C21.3546017,19.6756431 22.500313,20.8136492 22.500313,22.2185815 C22.500313,23.6213169 21.3546017,24.7604215 19.9450899,24.7604215 C18.535578,24.7604215 17.3909704,23.6213169 17.3909704,22.2185815 L17.3909704,22.2185815 Z M11.3312835,31.2699046 C11.3312835,29.8649723 12.4736835,28.7269662 13.8831954,28.7269662 C15.2949148,28.7269662 16.4384186,29.8649723 16.4384186,31.2699046 C16.4384186,32.67264 15.2949148,33.8117446 13.8831954,33.8117446 C12.4736835,33.8117446 11.3312835,32.67264 11.3312835,31.2699046 L11.3312835,31.2699046 Z M5.27049275,22.2185815 C5.27049275,20.8136492 6.41399652,19.6756431 7.82461217,19.6756431 C9.23412406,19.6756431 10.3765241,20.8136492 10.3765241,22.2185815 C10.3765241,23.6213169 9.23412406,24.7604215 7.82461217,24.7604215 C6.41399652,24.7604215 5.27049275,23.6213169 5.27049275,22.2185815 L5.27049275,22.2185815 Z M17.6602899,4.18953231 C17.6602899,5.46264923 18.6967281,6.49410462 19.9759954,6.49410462 C21.2541588,6.49410462 22.2928046,5.46264923 22.2928046,4.18953231 C22.2928046,2.91641538 21.2541588,1.88605846 19.9759954,1.88605846 C18.6967281,1.88605846 17.6602899,2.91641538 17.6602899,4.18953231 L17.6602899,4.18953231 Z" id="path1742"></path>
                    </g>
                </g>
            </g>
        </g>
    </g>
</svg>